PathFileType	4	(X/Y/Z)	./resultDataOpenSim/trcMotMarkerGrf/sub10/qtm-05-07.trc
DataRate	CameraRate	NumFrames	NumMarkers	Units	OrigDataRate	OrigDataStartFrame	OrigNumFrames
250.000000	250.000000	7	24	m	250.000000	449	513
Frame#	Time	L.Toe.Tip			R.Toe.Tip			L.Ankle.Lat			R.Ankle.Lat			L.Ankle.Med			R.Ankle.Med			L.Heel			R.Heel			L.Knee.Lat			R.Knee.Lat			L.Knee.Med			R.Knee.Med			L.Thigh.Upper			R.Thigh.Upper			L.ASIS			R.ASIS			V.Sacral			L.Acromium			R.Acromium			C7			L.Elbow			R.Elbow			L.Wrist.Lat			R.Wrist.Lat
		X1	Y1	Z1	X2	Y2	Z2	X3	Y3	Z3	X4	Y4	Z4	X5	Y5	Z5	X6	Y6	Z6	X7	Y7	Z7	X8	Y8	Z8	X9	Y9	Z9	X10	Y10	Z10	X11	Y11	Z11	X12	Y12	Z12	X13	Y13	Z13	X14	Y14	Z14	X15	Y15	Z15	X16	Y16	Z16	X17	Y17	Z17	X18	Y18	Z18	X19	Y19	Z19	X20	Y20	Z20	X21	Y21	Z21	X22	Y22	Z22	X23	Y23	Z23	X24	Y24	Z24

449	1.792	1.6536084	0.13095484	-0.20193529	0.94381775	0.038197826	0.027885694	1.526119	0.10041964	-0.24042374	0.80662247	0.074426136	0.063517847	1.5258136	0.11788829	-0.15936844	0.83270817	0.092509074	-0.023043056	1.4821033	0.041817114	-0.20499787	0.75188499	0.058059951	0.01749112	1.3668822	0.45965389	-0.2316932	0.99902285	0.43060402	0.083621283	1.3721338	0.42197212	-0.1156591	1.0269772	0.42593629	-0.04252578	1.2183308	0.80988023	-0.25022048	1.077539	0.8358425	0.12004647	1.2451071	0.92205622	-0.16469017	1.172045	0.92001889	0.076145596	1.0173311	0.91125628	-0.11317449	1.1443529	1.3860313	-0.2153264	1.1140615	1.3808729	0.10412764	1.0422437	1.4064289	-0.068820885	0.98190815	1.0967819	-0.29248721	1.1749264	1.0317103	0.18216074	1.015725	0.86299288	-0.35988259	1.4167626	0.97913656	0.14613427
450	1.796	1.6578239	0.12921928	-0.20229239	0.94397525	0.038216378	0.027893061	1.5305806	0.099042357	-0.24141002	0.80727409	0.07600659	0.06348494	1.5309279	0.11688628	-0.16014273	0.8336202	0.093711575	-0.023058156	1.4863652	0.04053047	-0.20578786	0.75242308	0.060196514	0.017445723	1.3733983	0.4591644	-0.23226013	1.0028735	0.43030427	0.083184806	1.3783542	0.42151955	-0.11628911	1.0316014	0.42513417	-0.042818145	1.2250452	0.80922521	-0.25070754	1.0822015	0.8353017	0.11906151	1.2513234	0.92102766	-0.16474515	1.177479	0.91913964	0.075836705	1.0230509	0.91071659	-0.11482642	1.1497161	1.385237	-0.21655886	1.1191272	1.380277	0.10295148	1.047464	1.405592	-0.070132957	0.98682222	1.0961068	-0.29307604	1.1801544	1.0310254	0.18030892	1.0197021	0.8622231	-0.36047505	1.421928	0.97822509	0.14431854
451	1.8	1.6615125	0.12715523	-0.20268433	0.94414936	0.038237612	0.02790769	1.5344923	0.097424606	-0.2423634	0.80799343	0.077661248	0.063484395	1.5352937	0.11544845	-0.1609281	0.8345705	0.09498195	-0.023032958	1.4900141	0.03910628	-0.20633812	0.75302024	0.06244307	0.017449195	1.3799637	0.45867223	-0.23282544	1.0068365	0.42999981	0.082713979	1.3846942	0.421133	-0.11689124	1.0362848	0.42432379	-0.043124776	1.2316585	0.80873075	-0.25125786	1.0869022	0.83472285	0.11800646	1.2575767	0.92002526	-0.16485917	1.1829821	0.91827039	0.075479434	1.0286895	0.91041631	-0.11696928	1.1551084	1.3844846	-0.21782565	1.1242346	1.3797333	0.10175909	1.0527265	1.4047929	-0.071485671	0.99179201	1.0954609	-0.29369442	1.1852653	1.0303383	0.17845212	1.0238104	0.8614766	-0.36101819	1.4269877	0.97728587	0.14255276
452	1.804	1.6648152	0.12477995	-0.2035401	0.94434228	0.038266887	0.027927811	1.5378422	0.095606278	-0.24323762	0.80879608	0.079399791	0.063513346	1.5391363	0.11365506	-0.16165992	0.83557449	0.096323063	-0.02297765	1.4931041	0.037559642	-0.20664033	0.75368215	0.06479833	0.017490262	1.3865024	0.45818212	-0.23336282	1.0109135	0.42968569	0.082215418	1.3912878	0.42082592	-0.11744757	1.0409851	0.42352338	-0.043455605	1.2381567	0.80840138	-0.25185496	1.0916641	0.83412845	0.11689439	1.2638613	0.91905561	-0.16498556	1.1885673	0.91741124	0.075072603	1.0343967	0.91018437	-0.11921494	1.160521	1.3837714	-0.21912136	1.1293817	1.3792364	0.10054103	1.0580375	1.4040373	-0.072876654	0.99681751	1.0948432	-0.29432562	1.1902496	1.0296912	0.17663605	1.0280509	0.86075422	-0.36152106	1.4319406	0.97631461	0.14083718
453	1.808	1.6677899	0.12210305	-0.20496614	0.94456268	0.038312354	0.027944656	1.5406575	0.093627021	-0.24401118	0.80971729	0.081235066	0.063568287	1.5425472	0.11158627	-0.16231542	0.83665571	0.097733492	-0.022902323	1.4956699	0.035913415	-0.20677055	0.75442278	0.067259106	0.017561006	1.392992	0.4576952	-0.23386813	1.0150957	0.4293747	0.081708203	1.398421	0.42061743	-0.11792131	1.0456804	0.42274514	-0.043810473	1.2445425	0.80822746	-0.25248688	1.0965479	0.83355133	0.11573972	1.2701706	0.91814043	-0.16511087	1.1942468	0.91656255	0.074624366	1.0404292	0.90973937	-0.12087617	1.165954	1.3830967	-0.22043706	1.1345671	1.378784	0.099288331	1.0634036	1.4033282	-0.074295064	1.0018998	1.0942526	-0.29495909	1.19512	1.0291107	0.17488388	1.032438	0.86005698	-0.36198804	1.436784	0.97530597	0.13916926
454	1.812	1.6704537	0.11914511	-0.20675102	0.94481831	0.038377638	0.027951274	1.543027	0.091518382	-0.24471203	0.81078876	0.083173146	0.063642307	1.5455385	0.1093466	-0.16290237	0.83782745	0.099214076	-0.022808844	1.4977294	0.034194445	-0.2068677	0.75525176	0.069825966	0.017659754	1.3994506	0.45720576	-0.23435406	1.0193823	0.42908489	0.081200374	1.4062746	0.42051782	-0.11829551	1.0503867	0.42199414	-0.044180563	1.2508331	0.80818136	-0.25314489	1.10168	0.8329682	0.1145608	1.2764883	0.91731582	-0.16525894	1.2000014	0.91572602	0.074147918	1.0468248	0.9090444	-0.12180198	1.171412	1.38246	-0.22176848	1.1397927	1.3783769	0.0980013	1.068826	1.4026613	-0.075729558	1.0070409	1.0936892	-0.29559947	1.1998864	1.028548	0.17311586	1.0369838	0.85938366	-0.36242007	1.441514	0.97425587	0.13754962
455	1.816	1.6728835	0.11594466	-0.20872115	0.94510292	0.038454073	0.027951011	1.5450818	0.089305082	-0.24541694	0.81200704	0.085195155	0.063723736	1.5481309	0.10703231	-0.16342417	0.83908797	0.10076517	-0.022692471	1.4993163	0.032421522	-0.2069955	0.75617106	0.072502487	0.017782601	1.4058852	0.45670431	-0.23482987	1.0237695	0.42882559	0.080683742	1.4145254	0.42051183	-0.11860443	1.0551479	0.42127651	-0.044554728	1.2570553	0.80822207	-0.25382314	1.107282	0.83226645	0.11340018	1.2827995	0.91660883	-0.16545838	1.2058112	0.91490813	0.073645606	1.0532592	0.90841018	-0.12269432	1.1768966	1.3818586	-0.22311763	1.1450614	1.3780083	0.096689671	1.0743015	1.4020324	-0.077176488	1.0122454	1.0931494	-0.29624967	1.2045548	1.0279162	0.17121623	1.041687	0.85873153	-0.36282103	1.4461315	0.97316328	0.1359833
